<?xml version="1.0" encoding="utf-8"?>
<!-- Generator: Adobe Illustrator 16.0.0, SVG Export Plug-In . SVG Version: 6.00 Build 0)  -->
<!DOCTYPE svg PUBLIC "-//W3C//DTD SVG 1.1//EN" "http://www.w3.org/Graphics/SVG/1.1/DTD/svg11.dtd">
<svg version="1.1" id="Layer_1" xmlns="http://www.w3.org/2000/svg" xmlns:xlink="http://www.w3.org/1999/xlink" x="0px" y="0px"
	 width="551.13px" height="551.129px" viewBox="0 0 551.13 551.129" enable-background="new 0 0 551.13 551.129"
	 xml:space="preserve">
<circle fill="#F9BABD" cx="275.565" cy="275.565" r="275.565"/>
<g>
	<path fill="#010101" d="M260.444,464.024c-5.152,0-10.054-3.746-11.158-8.527l-3.017-10.782l-0.646-0.093
		c-8.173-1.167-14.105-8.063-14.105-16.397V416.9c0-4.875,3.71-9.917,9.919-9.917h65.51c5.396,0.36,9.516,4.624,9.516,9.917v11.324
		c0,8.334-5.932,15.23-14.105,16.397l-0.646,0.093l-3.005,10.737c-1.552,5.037-6.147,8.572-11.17,8.572H260.444z M396.318,395.683
		c-2.41,0-4.621-0.99-6.572-2.943l-26.285-26.284c-1.915-1.742-2.982-4.009-3.04-6.414c-0.062-2.578,1.019-5.111,3.04-7.134
		c1.797-1.974,4.138-3.043,6.623-3.043c2.503,0,4.963,1.081,6.926,3.043l25.875,26.279c1.921,1.749,2.988,4.015,3.046,6.421
		c0.062,2.576-1.019,5.109-3.04,7.132C400.937,394.692,398.726,395.683,396.318,395.683z M152.474,395.683
		c-2.408,0-4.62-0.99-6.572-2.943c-1.916-1.743-2.984-4.01-3.041-6.417c-0.062-2.576,1.019-5.108,3.041-7.13l26.286-26.285
		c1.932-1.756,4.386-2.74,6.875-2.74c2.451,0,4.665,0.959,6.233,2.702l0.07,0.071c1.881,1.71,2.949,3.978,3.006,6.384
		c0.061,2.577-1.019,5.109-3.041,7.131l-26.285,26.284C157.094,394.692,154.883,395.683,152.474,395.683z M247.099,391.232
		c-12.031,0-22.16-8.66-24.084-20.591c-2-14-8.702-27.552-18.868-38.141c-17.154-17.952-26.821-41.409-27.22-66.047
		c-0.4-53.664,42.693-97.657,96.062-98.059h0.801c53.852,0.402,97.669,43.854,97.669,96.862c0,25.036-9.918,49.543-27.211,67.237
		c-10.318,10.729-16.845,23.924-18.879,38.165c-1.952,11.719-12.307,20.573-24.08,20.573H247.099z M273.366,187.828
		c-42.643,0.82-77.006,36.103-76.601,78.651c0.407,19.528,7.91,37.793,21.696,52.833c12.692,13.091,21.212,30.418,24.01,48.81
		c0.478,2.386,2.421,4.084,4.629,4.084h54.189c2.441,0,4.586-1.931,4.638-4.152c2.803-18.326,11.234-35.171,24.387-48.721
		c13.547-14.367,21.312-34.073,21.312-54.075c0-42.694-34.917-77.429-77.835-77.429h-0.414H273.366z M409.259,273.964
		c-5.336,0-9.516-4.179-9.516-9.515c0-5.336,4.18-9.516,9.516-9.516h37.203c2.978,0,5.575,1.024,7.315,2.884
		c1.611,1.722,2.372,3.992,2.2,6.565c-0.002,5.402-4.181,9.581-9.516,9.581H409.259z M102.734,273.962
		c-5.335,0-9.515-4.179-9.515-9.514c0-5.335,4.179-9.515,9.515-9.515h36.799c5.334,0,9.513,4.179,9.513,9.515
		c0,4.846-4.1,9.106-9.148,9.514H102.734z M370.437,178.527c-2.379,0-4.552-0.926-7.043-3.003c-1.849-1.682-2.916-3.949-2.974-6.355
		c-0.062-2.577,1.019-5.109,3.04-7.132l26.285-26.285c1.733-1.905,3.946-2.894,6.432-2.894c2.536,0,5.075,1.04,7.151,2.927
		c1.881,1.71,2.948,3.978,3.006,6.383c0.062,2.577-1.019,5.109-3.04,7.132l-26.285,26.285
		C375.057,177.538,372.846,178.527,370.437,178.527z M178.759,178.527c-2.409,0-4.62-0.99-6.572-2.942l-26.694-26.291
		c-1.947-1.771-2.936-4.042-2.887-6.598c0.047-2.477,1.085-4.956,2.925-6.979c1.764-1.941,4.104-3.01,6.589-3.01
		c2.504,0,4.963,1.081,6.926,3.044l26.285,26.285c1.916,1.743,2.983,4.01,3.041,6.417c0.061,2.577-1.019,5.11-3.041,7.132
		C183.379,177.538,181.168,178.527,178.759,178.527z M274.6,138.897c-5.336,0-9.516-4.179-9.516-9.514V92.18
		c0-5.068,4.447-9.514,9.516-9.514c5.334,0,9.513,4.179,9.513,9.514v37.204C284.113,134.718,279.934,138.897,274.6,138.897z"/>
</g>
<g>
</g>
<g>
</g>
<g>
</g>
<g>
</g>
<g>
</g>
<g>
</g>
</svg>
